<svg viewBox="0 0 600 400" xmlns="http://www.w3.org/2000/svg">
<g transform="translate(72, 364)">
<g>
<g>
<path d="M21,-7.625974 l6,6 m-6,0 l6,-6 z" fill="none" stroke="#35C788" stroke-width="2"/>
<path d="M45,-7.9117937 l6,6 m-6,0 l6,-6 z" fill="none" stroke="#35C788" stroke-width="2"/>
<path d="M69,-8.4845295 l6,6 m-6,0 l6,-6 z" fill="none" stroke="#35C788" stroke-width="2"/>
<path d="M93,-9.438284 l6,6 m-6,0 l6,-6 z" fill="none" stroke="#35C788" stroke-width="2"/>
<path d="M117,-11.00711 l6,6 m-6,0 l6,-6 z" fill="none" stroke="#35C788" stroke-width="2"/>
<path d="M141,-13.399612 l6,6 m-6,0 l6,-6 z" fill="none" stroke="#35C788" stroke-width="2"/>
<path d="M165,-16.51511 l6,6 m-6,0 l6,-6 z" fill="none" stroke="#35C788" stroke-width="2"/>
<path d="M189,-21.330606 l6,6 m-6,0 l6,-6 z" fill="none" stroke="#35C788" stroke-width="2"/>
<path d="M213,-28.21418 l6,6 m-6,0 l6,-6 z" fill="none" stroke="#35C788" stroke-width="2"/>
<path d="M237,-36.84294 l6,6 m-6,0 l6,-6 z" fill="none" stroke="#35C788" stroke-width="2"/>
<path d="M261,-47.39391 l6,6 m-6,0 l6,-6 z" fill="none" stroke="#35C788" stroke-width="2"/>
<path d="M285,-61.5412 l6,6 m-6,0 l6,-6 z" fill="none" stroke="#35C788" stroke-width="2"/>
<path d="M309,-77.68549 l6,6 m-6,0 l6,-6 z" fill="none" stroke="#35C788" stroke-width="2"/>
<path d="M333,-100.66511 l6,6 m-6,0 l6,-6 z" fill="none" stroke="#35C788" stroke-width="2"/>
<path d="M357,-127.06578 l6,6 m-6,0 l6,-6 z" fill="none" stroke="#35C788" stroke-width="2"/>
<path d="M381,-156.87325 l6,6 m-6,0 l6,-6 z" fill="none" stroke="#35C788" stroke-width="2"/>
<path d="M405,-193.4329 l6,6 m-6,0 l6,-6 z" fill="none" stroke="#35C788" stroke-width="2"/>
<path d="M429,-238.55266 l6,6 m-6,0 l6,-6 z" fill="none" stroke="#35C788" stroke-width="2"/>
<path d="M453,-288.61755 l6,6 m-6,0 l6,-6 z" fill="none" stroke="#35C788" stroke-width="2"/>
<path d="M477,-342.59485 l6,6 m-6,0 l6,-6 z" fill="none" stroke="#35C788" stroke-width="2"/>
</g>
</g>
<g>
<g>
<path d="M21,-7.5816646 l6,6 m-6,0 l6,-6 z" fill="none" stroke="#DD3355" stroke-width="2"/>
<path d="M45,-7.7659225 l6,6 m-6,0 l6,-6 z" fill="none" stroke="#DD3355" stroke-width="2"/>
<path d="M69,-8.135755 l6,6 m-6,0 l6,-6 z" fill="none" stroke="#DD3355" stroke-width="2"/>
<path d="M93,-8.697522 l6,6 m-6,0 l6,-6 z" fill="none" stroke="#DD3355" stroke-width="2"/>
<path d="M117,-9.580207 l6,6 m-6,0 l6,-6 z" fill="none" stroke="#DD3355" stroke-width="2"/>
<path d="M141,-11.152103 l6,6 m-6,0 l6,-6 z" fill="none" stroke="#DD3355" stroke-width="2"/>
<path d="M165,-12.767213 l6,6 m-6,0 l6,-6 z" fill="none" stroke="#DD3355" stroke-width="2"/>
<path d="M189,-15.764039 l6,6 m-6,0 l6,-6 z" fill="none" stroke="#DD3355" stroke-width="2"/>
<path d="M213,-19.41805 l6,6 m-6,0 l6,-6 z" fill="none" stroke="#DD3355" stroke-width="2"/>
<path d="M237,-24.64396 l6,6 m-6,0 l6,-6 z" fill="none" stroke="#DD3355" stroke-width="2"/>
<path d="M261,-30.767252 l6,6 m-6,0 l6,-6 z" fill="none" stroke="#DD3355" stroke-width="2"/>
<path d="M285,-38.238914 l6,6 m-6,0 l6,-6 z" fill="none" stroke="#DD3355" stroke-width="2"/>
<path d="M309,-47.769444 l6,6 m-6,0 l6,-6 z" fill="none" stroke="#DD3355" stroke-width="2"/>
<path d="M333,-59.776928 l6,6 m-6,0 l6,-6 z" fill="none" stroke="#DD3355" stroke-width="2"/>
<path d="M357,-73.65836 l6,6 m-6,0 l6,-6 z" fill="none" stroke="#DD3355" stroke-width="2"/>
<path d="M381,-91.23197 l6,6 m-6,0 l6,-6 z" fill="none" stroke="#DD3355" stroke-width="2"/>
<path d="M405,-111.21739 l6,6 m-6,0 l6,-6 z" fill="none" stroke="#DD3355" stroke-width="2"/>
<path d="M429,-136.99707 l6,6 m-6,0 l6,-6 z" fill="none" stroke="#DD3355" stroke-width="2"/>
<path d="M453,-165.55005 l6,6 m-6,0 l6,-6 z" fill="none" stroke="#DD3355" stroke-width="2"/>
<path d="M477,-197.31987 l6,6 m-6,0 l6,-6 z" fill="none" stroke="#DD3355" stroke-width="2"/>
</g>
</g>
<g>
<g>
<path d="M21,-7.489316 l6,6 m-6,0 l6,-6 z" fill="none" stroke="#2338C4" stroke-width="2"/>
<path d="M45,-9.618374 l6,6 m-6,0 l6,-6 z" fill="none" stroke="#2338C4" stroke-width="2"/>
<path d="M69,-155.4707 l6,6 m-6,0 l6,-6 z" fill="none" stroke="#2338C4" stroke-width="2"/>
</g>
</g>
<g>
<g>
<path d="M21,-7.5902195 l6,6 m-6,0 l6,-6 z" fill="none" stroke="#D1B623" stroke-width="2"/>
<path d="M45,-7.910697 l6,6 m-6,0 l6,-6 z" fill="none" stroke="#D1B623" stroke-width="2"/>
<path d="M69,-32.867355 l6,6 m-6,0 l6,-6 z" fill="none" stroke="#D1B623" stroke-width="2"/>
</g>
</g>
<g>
<g>
<line stroke="black" stroke-width="1" x1="0" x2="0" y1="0" y2="10"/>
<line stroke="black" stroke-width="1" x1="120" x2="120" y1="0" y2="10"/>
<line stroke="black" stroke-width="1" x1="240" x2="240" y1="0" y2="10"/>
<line stroke="black" stroke-width="1" x1="360" x2="360" y1="0" y2="10"/>
<line stroke="black" stroke-width="1" x1="480" x2="480" y1="0" y2="10"/>
</g>
<line stroke="black" stroke-width="1" x1="0" x2="480" y1="0" y2="0"/>
<g>
<text font-size="12" text-anchor="middle" x="0" y="20">
0
</text>
<text font-size="12" text-anchor="middle" x="120" y="20">
10
</text>
<text font-size="12" text-anchor="middle" x="240" y="20">
20
</text>
<text font-size="12" text-anchor="middle" x="360" y="20">
30
</text>
<text font-size="12" text-anchor="middle" x="480" y="20">
40
</text>
</g>
<text font-size="12" text-anchor="middle" x="240" y="30">
Instance (balls)
</text>
</g>
<g>
<g>
<line stroke="black" stroke-width="1" x1="0" x2="-10" y1="-4.387096774193548" y2="-4.387096774193548"/>
<line stroke="black" stroke-width="1" x1="0" x2="-10" y1="-114.06451612903226" y2="-114.06451612903226"/>
<line stroke="black" stroke-width="1" x1="0" x2="-10" y1="-223.74193548387098" y2="-223.74193548387098"/>
<line stroke="black" stroke-width="1" x1="0" x2="-10" y1="-333.4193548387097" y2="-333.4193548387097"/>
</g>
<line stroke="black" stroke-width="1" x1="0" x2="0" y1="0" y2="-340"/>
<g>
<text dominant-baseline="middle" font-size="12" text-anchor="end" x="-15" y="-4.387096774193548">
0
</text>
<text dominant-baseline="middle" font-size="12" text-anchor="end" x="-15" y="-114.06451612903226">
50
</text>
<text dominant-baseline="middle" font-size="12" text-anchor="end" x="-15" y="-223.74193548387098">
100
</text>
<text dominant-baseline="middle" font-size="12" text-anchor="end" x="-15" y="-333.4193548387097">
150
</text>
</g>
<text font-size="12" text-anchor="middle" transform="rotate(-90 -36 -170)" x="-36" y="-182">
Time in seconds
</text>
</g>
</g>
</svg>