<svg viewBox="0 0 600 400" xmlns="http://www.w3.org/2000/svg">
<g transform="translate(72, 364)">
<g>
<g>
<circle cx="24" cy="-3.939703296703297" fill="#404040" r="3"/>
<circle cx="48" cy="-4.183120879120879" fill="#404040" r="3"/>
<circle cx="72" cy="-4.67089010989011" fill="#404040" r="3"/>
<circle cx="96" cy="-5.483153846153846" fill="#404040" r="3"/>
<circle cx="120" cy="-6.819241758241759" fill="#404040" r="3"/>
<circle cx="144" cy="-8.856813186813186" fill="#404040" r="3"/>
<circle cx="168" cy="-11.51012087912088" fill="#404040" r="3"/>
<circle cx="192" cy="-15.61123076923077" fill="#404040" r="3"/>
<circle cx="216" cy="-21.473615384615385" fill="#404040" r="3"/>
<circle cx="240" cy="-28.822285714285712" fill="#404040" r="3"/>
<circle cx="264" cy="-37.808" fill="#404040" r="3"/>
<circle cx="288" cy="-49.85651648351649" fill="#404040" r="3"/>
<circle cx="312" cy="-63.60578021978022" fill="#404040" r="3"/>
<circle cx="336" cy="-83.17632967032968" fill="#404040" r="3"/>
<circle cx="360" cy="-105.66041758241758" fill="#404040" r="3"/>
<circle cx="384" cy="-131.04590109890108" fill="#404040" r="3"/>
<circle cx="408" cy="-162.18186813186813" fill="#404040" r="3"/>
<circle cx="432" cy="-200.60803296703295" fill="#404040" r="3"/>
<circle cx="456" cy="-243.24571428571429" fill="#404040" r="3"/>
<circle cx="480" cy="-289.2153956043956" fill="#404040" r="3"/>
</g>
</g>
<g>
<g>
<path d="M21,-6.901967 l6,6 m-6,0 l6,-6 z" fill="none" stroke="#404040" stroke-width="2"/>
<path d="M45,-7.0588903 l6,6 m-6,0 l6,-6 z" fill="none" stroke="#404040" stroke-width="2"/>
<path d="M69,-7.373857 l6,6 m-6,0 l6,-6 z" fill="none" stroke="#404040" stroke-width="2"/>
<path d="M93,-7.852286 l6,6 m-6,0 l6,-6 z" fill="none" stroke="#404040" stroke-width="2"/>
<path d="M117,-8.604022 l6,6 m-6,0 l6,-6 z" fill="none" stroke="#404040" stroke-width="2"/>
<path d="M141,-9.942725 l6,6 m-6,0 l6,-6 z" fill="none" stroke="#404040" stroke-width="2"/>
<path d="M165,-11.318231 l6,6 m-6,0 l6,-6 z" fill="none" stroke="#404040" stroke-width="2"/>
<path d="M189,-13.870473 l6,6 m-6,0 l6,-6 z" fill="none" stroke="#404040" stroke-width="2"/>
<path d="M213,-16.982407 l6,6 m-6,0 l6,-6 z" fill="none" stroke="#404040" stroke-width="2"/>
<path d="M237,-21.433044 l6,6 m-6,0 l6,-6 z" fill="none" stroke="#404040" stroke-width="2"/>
<path d="M261,-26.647934 l6,6 m-6,0 l6,-6 z" fill="none" stroke="#404040" stroke-width="2"/>
<path d="M285,-33.011166 l6,6 m-6,0 l6,-6 z" fill="none" stroke="#404040" stroke-width="2"/>
<path d="M309,-41.127823 l6,6 m-6,0 l6,-6 z" fill="none" stroke="#404040" stroke-width="2"/>
<path d="M333,-51.353977 l6,6 m-6,0 l6,-6 z" fill="none" stroke="#404040" stroke-width="2"/>
<path d="M357,-63.17608 l6,6 m-6,0 l6,-6 z" fill="none" stroke="#404040" stroke-width="2"/>
<path d="M381,-78.14262 l6,6 m-6,0 l6,-6 z" fill="none" stroke="#404040" stroke-width="2"/>
<path d="M405,-95.16316 l6,6 m-6,0 l6,-6 z" fill="none" stroke="#404040" stroke-width="2"/>
<path d="M429,-117.118385 l6,6 m-6,0 l6,-6 z" fill="none" stroke="#404040" stroke-width="2"/>
<path d="M453,-141.43549 l6,6 m-6,0 l6,-6 z" fill="none" stroke="#404040" stroke-width="2"/>
<path d="M477,-168.4922 l6,6 m-6,0 l6,-6 z" fill="none" stroke="#404040" stroke-width="2"/>
</g>
</g>
<g>
<g>
<rect fill="#404040" height="6" width="6" x="21" y="-6.823318681318682"/>
<rect fill="#404040" height="6" width="6" x="45" y="-8.636527472527472"/>
<rect fill="#404040" height="6" width="6" x="69" y="-132.85141758241758"/>
<rect fill="#404040" height="6" width="6" x="93" y="-1358.345923076923"/>
</g>
</g>
<g>
<g>
<line stroke="black" stroke-width="1" x1="0" x2="0" y1="0" y2="10"/>
<line stroke="black" stroke-width="1" x1="120" x2="120" y1="0" y2="10"/>
<line stroke="black" stroke-width="1" x1="240" x2="240" y1="0" y2="10"/>
<line stroke="black" stroke-width="1" x1="360" x2="360" y1="0" y2="10"/>
<line stroke="black" stroke-width="1" x1="480" x2="480" y1="0" y2="10"/>
</g>
<line stroke="black" stroke-width="1" x1="0" x2="480" y1="0" y2="0"/>
<g>
<text font-size="12" text-anchor="middle" x="0" y="20">
0
</text>
<text font-size="12" text-anchor="middle" x="120" y="20">
10
</text>
<text font-size="12" text-anchor="middle" x="240" y="20">
20
</text>
<text font-size="12" text-anchor="middle" x="360" y="20">
30
</text>
<text font-size="12" text-anchor="middle" x="480" y="20">
40
</text>
</g>
<text font-size="12" text-anchor="middle" x="240" y="30">
Instance (balls)
</text>
</g>
<g>
<g>
<line stroke="black" stroke-width="1" x1="0" x2="-10" y1="-3.7362637362637363" y2="-3.7362637362637363"/>
<line stroke="black" stroke-width="1" x1="0" x2="-10" y1="-78.46153846153847" y2="-78.46153846153847"/>
<line stroke="black" stroke-width="1" x1="0" x2="-10" y1="-153.1868131868132" y2="-153.1868131868132"/>
<line stroke="black" stroke-width="1" x1="0" x2="-10" y1="-227.9120879120879" y2="-227.9120879120879"/>
<line stroke="black" stroke-width="1" x1="0" x2="-10" y1="-302.6373626373626" y2="-302.6373626373626"/>
</g>
<line stroke="black" stroke-width="1" x1="0" x2="0" y1="0" y2="-340"/>
<g>
<text dominant-baseline="middle" font-size="12" text-anchor="end" x="-15" y="-3.7362637362637363">
0
</text>
<text dominant-baseline="middle" font-size="12" text-anchor="end" x="-15" y="-78.46153846153847">
40
</text>
<text dominant-baseline="middle" font-size="12" text-anchor="end" x="-15" y="-153.1868131868132">
80
</text>
<text dominant-baseline="middle" font-size="12" text-anchor="end" x="-15" y="-227.9120879120879">
120
</text>
<text dominant-baseline="middle" font-size="12" text-anchor="end" x="-15" y="-302.6373626373626">
160
</text>
</g>
<text font-size="12" text-anchor="middle" transform="rotate(-90 -36 -170)" x="-36" y="-182">
Seconds
</text>
</g>
</g>
</svg>